<svg width="138" height="31" viewBox="0 0 138 31" fill="none" xmlns="http://www.w3.org/2000/svg">
<rect width="138" height="31" fill="#1E1E1E"/>
<g clip-path="url(#clip0_0_1)">
<rect y="-9" width="140" height="54" fill="white"/>
<path d="M10.0481 10.3334L19.7361 15.5001L29.424 10.3334L10.0481 0V10.3334Z" fill="url(#paint0_linear_0_1)"/>
<path d="M10.0484 20.6666V31L29.4243 20.6666L19.7363 15.4999L10.0484 20.6666Z" fill="url(#paint1_linear_0_1)"/>
<path d="M29.4249 20.6669V10.3334L19.7369 15.5002L29.4249 20.6669Z" fill="#2CB72C"/>
<path d="M10.0472 10.3334V20.6669L0.359273 15.5002L10.0472 10.3334Z" fill="#FF9300"/>
<path fill-rule="evenodd" clip-rule="evenodd" d="M43.4132 4.81833H39.7122V13.8746H43.4132C44.3113 13.8746 45.1005 13.7005 45.8081 13.3231C46.5155 12.9457 47.0598 12.4233 47.4408 11.7266C47.8218 11.03 48.0123 10.2463 48.0123 9.34646C48.0123 8.44663 47.8218 7.66292 47.4408 6.96629C47.0598 6.26966 46.5155 5.74718 45.8081 5.36983C45.1277 4.99249 44.3113 4.81833 43.4132 4.81833ZM44.9917 12.0466C44.529 12.3078 43.9848 12.424 43.3588 12.424H41.2906V6.27034H43.3588C43.9848 6.27034 44.529 6.38644 44.9917 6.64768C45.4543 6.8799 45.8353 7.25724 46.0802 7.72167C46.3251 8.18609 46.4611 8.73759 46.4611 9.34714C46.4611 9.9567 46.3251 10.5082 46.0802 10.9727C45.8353 11.437 45.4543 11.7854 44.9917 12.0466Z" fill="black"/>
<path fill-rule="evenodd" clip-rule="evenodd" d="M50.2936 10.9142H55.3552C55.3671 10.8251 55.3738 10.7416 55.3799 10.6661C55.3876 10.5694 55.3944 10.486 55.4097 10.4208C55.4097 9.7241 55.2736 9.11455 55.0014 8.56305C54.7021 8.04057 54.3211 7.60518 53.8312 7.3149C53.3415 7.02464 52.7699 6.87951 52.144 6.87951C51.5181 6.87951 50.9466 7.05367 50.4296 7.34393C49.9125 7.6342 49.5316 8.0696 49.2322 8.59207C48.9328 9.11455 48.7968 9.7241 48.7968 10.3917C48.7968 11.0884 48.9328 11.6689 49.2322 12.2204C49.5316 12.7429 49.9397 13.1782 50.484 13.4685C51.0283 13.7878 51.6542 13.9329 52.3618 13.9329C52.906 13.9329 53.4231 13.8458 53.8585 13.6427C54.2939 13.4395 54.6477 13.1782 54.947 12.8009L54.1306 11.814C53.6952 12.3074 53.0965 12.5687 52.389 12.5687C51.8447 12.5687 51.3821 12.4236 51.001 12.1333C50.6201 11.814 50.3752 11.4076 50.2936 10.9142ZM50.2947 9.8402C50.3492 9.34675 50.5669 8.94038 50.8934 8.62109C51.2471 8.33083 51.6554 8.15667 52.118 8.15667C52.6079 8.15667 53.016 8.3018 53.3427 8.62109C53.6692 8.94038 53.8869 9.34675 53.9413 9.8402H50.2947Z" fill="black"/>
<path d="M56.6093 4.2666H58.1332V13.8453H56.6093V4.2666Z" fill="black"/>
<path d="M64.0422 13.4678C63.8517 13.613 63.6612 13.7292 63.3891 13.8162C63.1441 13.9033 62.872 13.9323 62.5727 13.9323C61.8651 13.9323 61.3208 13.7292 60.9398 13.3518C60.5589 12.9454 60.3684 12.3939 60.3684 11.6102V8.30119H59.307V7.02402H60.3684V5.4566H61.8923V7.02402H63.634V8.30119H61.8923V11.5812C61.8923 11.9295 61.9739 12.1617 62.11 12.3358C62.2733 12.51 62.491 12.5971 62.7632 12.5971C63.0897 12.5971 63.3891 12.51 63.6068 12.3068L64.0422 13.4678Z" fill="black"/>
<path fill-rule="evenodd" clip-rule="evenodd" d="M70.4609 9.81118C70.4609 8.82428 70.216 8.09863 69.6989 7.60518C69.2091 7.11172 68.4743 6.87951 67.5218 6.87951C66.9776 6.87951 66.4605 6.96659 65.9979 7.11172C65.508 7.25685 65.0999 7.48906 64.7733 7.75031L65.372 8.91136C65.6169 8.70818 65.9162 8.53402 66.27 8.41792C66.6238 8.30181 66.9776 8.24376 67.3313 8.24376C67.8483 8.24376 68.2566 8.35986 68.5287 8.6211C68.8008 8.88234 68.937 9.23065 68.937 9.7241V9.84021H67.2769C66.3517 9.84021 65.6713 10.0144 65.2359 10.3917C64.8005 10.7691 64.5828 11.2625 64.5828 11.8721C64.5828 12.2784 64.6916 12.6267 64.8821 12.946C65.0727 13.2363 65.372 13.4975 65.7257 13.6717C66.1068 13.8458 66.5149 13.9329 67.0048 13.9329C67.4946 13.9329 67.9029 13.8458 68.2566 13.7008C68.5831 13.5265 68.8553 13.2944 69.0458 13.0041V13.8458H70.4609V9.81118ZM68.9382 11.6979C68.802 12.0462 68.6116 12.3074 68.3122 12.4815C68.0401 12.6558 67.6863 12.7718 67.3053 12.7718C66.9243 12.7718 66.625 12.6847 66.4073 12.5106C66.1896 12.3365 66.0808 12.1042 66.0808 11.8139C66.0808 11.2043 66.5161 10.8851 67.387 10.8851H68.9382V11.6979Z" fill="black"/>
<path d="M71.937 13.6133C71.7465 13.4101 71.6376 13.1489 71.6376 12.8586C71.6376 12.5393 71.7193 12.2781 71.9097 12.0749C72.1002 11.8718 72.3452 11.7846 72.6173 11.7846C72.8894 11.7846 73.1343 11.8718 73.3249 12.0749C73.5154 12.2781 73.597 12.5393 73.597 12.8586C73.597 13.1779 73.4882 13.4101 73.2976 13.6133C73.1071 13.8165 72.8622 13.9036 72.5901 13.9036C72.3724 13.9325 72.1274 13.8165 71.937 13.6133Z" fill="black"/>
<path d="M45.5631 25.6012V26.1818H39.7122V17.1545H45.3726V17.735H40.3381V21.3053H44.8556V21.8858H40.3381V25.6012H45.5631Z" fill="black"/>
<path d="M51.5199 26.2107L49.3428 23.192L47.1657 26.2107H46.4854L48.989 22.7275L46.6215 19.4766H47.3018L49.3428 22.2632L51.3839 19.4766H52.0641L49.6966 22.7275L52.2274 26.2107H51.5199Z" fill="black"/>
<path d="M54.1655 25.8045C53.6756 25.5142 53.2947 25.1078 53.0226 24.5854C52.7504 24.0629 52.6143 23.4824 52.6143 22.8148C52.6143 22.1471 52.7504 21.5666 53.0226 21.0441C53.2947 20.5217 53.6756 20.1153 54.1655 19.825C54.6553 19.5348 55.1996 19.3897 55.7983 19.3897C56.3153 19.3897 56.778 19.5057 57.1862 19.709C57.5943 19.9121 57.9482 20.2314 58.1931 20.6377L57.7577 20.9861C57.5399 20.6377 57.2406 20.4055 56.9141 20.2314C56.5874 20.0572 56.2065 19.9702 55.7983 19.9702C55.3084 19.9702 54.8731 20.0862 54.4648 20.3184C54.0839 20.5507 53.7573 20.899 53.5396 21.3054C53.3219 21.7408 53.213 22.2342 53.213 22.7857C53.213 23.3372 53.3219 23.8306 53.5396 24.2661C53.7573 24.7014 54.0567 25.0207 54.4648 25.253C54.8459 25.4852 55.3084 25.6012 55.7983 25.6012C56.2065 25.6012 56.5602 25.5142 56.9141 25.34C57.2406 25.1659 57.5399 24.9337 57.7577 24.5854L58.1931 24.9337C57.9482 25.34 57.5943 25.6593 57.1862 25.8625C56.778 26.0657 56.3153 26.1818 55.7983 26.1818C55.1996 26.2398 54.6553 26.0948 54.1655 25.8045Z" fill="black"/>
<path d="M64.3646 20.1444C64.8272 20.6378 65.045 21.3345 65.045 22.2634V26.182H64.4462V22.2924C64.4462 21.5377 64.2558 20.9571 63.9019 20.5508C63.5482 20.1444 63.0312 19.9703 62.4052 19.9703C61.6705 19.9703 61.0718 20.2025 60.6636 20.6669C60.2282 21.1314 60.0104 21.77 60.0104 22.5827V26.182H59.4118V16.6032H60.0104V20.8411C60.2282 20.3766 60.5547 20.0284 60.9901 19.767C61.4256 19.5058 61.9154 19.3898 62.5141 19.3898C63.2761 19.4188 63.9019 19.651 64.3646 20.1444Z" fill="black"/>
<path fill-rule="evenodd" clip-rule="evenodd" d="M71.6044 21.9439C71.6044 21.1021 71.3867 20.4925 70.9786 20.0572C70.5431 19.6218 69.9445 19.4186 69.2369 19.4186C68.747 19.4186 68.3117 19.5056 67.849 19.6798C67.3864 19.8539 67.0327 20.0861 66.706 20.3764L67.0054 20.8409C67.2776 20.5797 67.6041 20.3764 67.9851 20.2313C68.3661 20.0861 68.7742 19.9991 69.1825 19.9991C69.7811 19.9991 70.2438 20.1732 70.5703 20.4925C70.897 20.8118 71.0602 21.2762 71.0602 21.9148V22.4663H68.8832C68.0668 22.4663 67.468 22.6405 67.0871 22.9889C66.706 23.3371 66.5156 23.8016 66.5156 24.3531C66.5156 24.9336 66.706 25.398 67.1143 25.7463C67.5224 26.0947 68.0668 26.2688 68.7742 26.2688C69.3185 26.2688 69.7811 26.1818 70.1622 25.9495C70.5431 25.7173 70.8425 25.427 71.033 25.0207V26.2108H71.6044V21.9439ZM70.982 24.2073C70.8188 24.7008 70.5195 25.0781 70.1657 25.3394C69.8119 25.6006 69.3493 25.7167 68.8322 25.6876C68.2608 25.6876 67.8253 25.5716 67.526 25.3104C67.2266 25.0491 67.0633 24.7008 67.0633 24.2654C67.0633 23.859 67.1995 23.5107 67.4716 23.2785C67.7709 23.0462 68.2064 22.9302 68.8322 22.9302H70.982V24.2073Z" fill="black"/>
<path d="M78.0244 20.1443C78.487 20.6377 78.7048 21.3344 78.7048 22.2633V26.1818H78.106V22.2923C78.106 21.5376 77.9155 20.957 77.5618 20.5507C77.208 20.1443 76.691 19.9702 76.065 19.9702C75.3302 19.9702 74.7316 20.2024 74.3234 20.6668C73.888 21.1313 73.6703 21.7697 73.6703 22.5826V26.1818H73.0716V19.4476H73.643V20.899C73.8608 20.4346 74.1873 20.0572 74.6227 19.796C75.0581 19.5348 75.5751 19.3897 76.1467 19.3897C76.9359 19.4187 77.5618 19.6509 78.0244 20.1443Z" fill="black"/>
<path fill-rule="evenodd" clip-rule="evenodd" d="M86.1351 25.4851V19.5346H85.5637V21.044C85.2915 20.5506 84.9378 20.1442 84.4752 19.883C84.0125 19.6218 83.4683 19.4766 82.8968 19.4766C82.2981 19.4766 81.7811 19.6218 81.2912 19.883C80.8014 20.1733 80.4203 20.5506 80.1482 21.044C79.8761 21.5375 79.7401 22.0889 79.7401 22.7275C79.7401 23.3371 79.8761 23.9176 80.1482 24.4111C80.4475 24.9046 80.8014 25.2818 81.2912 25.5721C81.7811 25.8334 82.2981 25.9785 82.8968 25.9785C83.4683 25.9785 83.9853 25.8334 84.448 25.5721C84.9106 25.3109 85.2915 24.9336 85.5365 24.4401V25.5721C85.5365 26.4719 85.3459 27.1105 84.9378 27.546C84.5568 27.9813 83.9309 28.1846 83.0873 28.1846C82.5975 28.1846 82.1348 28.0975 81.6722 27.9232C81.2095 27.7491 80.8558 27.5169 80.5293 27.1976L80.2027 27.6911C80.5293 28.0104 80.9374 28.2716 81.4545 28.4748C81.9715 28.678 82.5158 28.7651 83.0873 28.7651C84.0942 28.7651 84.8562 28.4748 85.3733 27.9523C85.8903 27.4298 86.1351 26.5881 86.1351 25.4851ZM85.2123 24.063C84.9946 24.4694 84.6953 24.7887 84.287 25.0209C83.8788 25.2531 83.4434 25.3693 82.9536 25.3693C82.4637 25.3693 82.0011 25.2531 81.6202 25.0209C81.2119 24.7887 80.9126 24.4694 80.6949 24.063C80.4771 23.6567 80.3683 23.1922 80.3683 22.6698C80.3683 22.1473 80.4771 21.6828 80.6949 21.2765C80.9126 20.8701 81.2391 20.5508 81.6202 20.3186C82.0283 20.0865 82.4637 19.9703 82.9536 19.9703C83.4434 19.9703 83.8788 20.0865 84.287 20.3186C84.6953 20.5508 84.9946 20.8701 85.2123 21.2765C85.4299 21.6828 85.5389 22.1473 85.5389 22.6698C85.5389 23.1922 85.4299 23.6567 85.2123 24.063Z" fill="black"/>
<path fill-rule="evenodd" clip-rule="evenodd" d="M87.8502 22.9888H93.2657L93.3201 22.8437C93.3201 22.2051 93.2112 21.6246 92.939 21.1021C92.6669 20.5797 92.3132 20.1733 91.8505 19.883C91.3879 19.5927 90.8708 19.4476 90.2994 19.4476C89.7279 19.4476 89.2108 19.5927 88.7482 19.883C88.2855 20.1733 87.9318 20.5797 87.6597 21.1021C87.4148 21.6246 87.2786 22.2051 87.2786 22.8727C87.2786 23.5404 87.4148 24.1209 87.6869 24.6433C87.959 25.1658 88.34 25.5722 88.8298 25.8625C89.3197 26.1527 89.8911 26.2978 90.5171 26.2978C91.0069 26.2978 91.4696 26.2107 91.8777 26.0076C92.286 25.8044 92.6397 25.5432 92.9118 25.1948L92.5581 24.7594C92.3404 25.0497 92.041 25.3109 91.6872 25.4561C91.3335 25.6012 90.9525 25.6883 90.5443 25.6883C90.0272 25.6883 89.5918 25.5722 89.1836 25.3399C88.7754 25.1077 88.4761 24.7884 88.2311 24.3821C87.9862 23.9757 87.8774 23.5113 87.8502 22.9888ZM88.2312 21.189C88.4489 20.7827 88.7211 20.4924 89.0748 20.2893C89.4286 20.086 89.8096 19.97 90.2723 19.999C90.7076 19.999 91.1158 20.1151 91.4696 20.3182C91.8234 20.5505 92.1227 20.8408 92.3405 21.2181C92.5581 21.5954 92.667 22.0018 92.6942 22.4953H87.8502C87.9046 22.0018 88.0135 21.5664 88.2312 21.189Z" fill="black"/>
<path d="M98.4367 16.5333V26.8667" stroke="black" stroke-width="0.3"/>
<path d="M103.252 26.35V17.05H104.602V26.35H103.252Z" fill="black"/>
<path d="M107.256 26.35V17.05H108.693C109.038 17.5993 109.511 18.353 110.114 19.3111C110.721 20.2692 111.275 21.1507 111.776 21.9555C112.28 22.7561 112.751 23.514 113.185 24.2294V17.05H114.465V26.35H113.021C112.676 25.8049 112.199 25.0555 111.588 24.1017C110.978 23.1436 110.42 22.2642 109.915 21.4637C109.41 20.6632 108.941 19.903 108.506 19.1834V26.35H107.256Z" fill="black"/>
<path d="M117.224 26.35V17.05H119.432C121.126 17.05 122.41 17.4353 123.283 18.2061C124.155 18.9726 124.592 20.1265 124.592 21.6681C124.592 23.1755 124.179 24.3338 123.353 25.1428C122.531 25.9476 121.343 26.35 119.789 26.35H117.224ZM118.574 25.0981H119.865C120.946 25.0981 121.766 24.8022 122.326 24.2103C122.886 23.614 123.165 22.7645 123.165 21.6617C123.165 20.5333 122.872 19.6922 122.285 19.1387C121.697 18.5809 120.792 18.3019 119.567 18.3019H118.574V25.0981Z" fill="black"/>
<path d="M126.816 26.35V17.05H128.166V26.35H126.816Z" fill="black"/>
<path d="M132.535 22.6709H135.153C134.792 21.551 134.36 20.2245 133.855 18.6916C133.268 20.463 132.827 21.7894 132.535 22.6709ZM129.787 26.35L133.186 17.05H134.572L138 26.35H136.491L135.628 23.9675H132.106L131.26 26.35H129.787Z" fill="black"/>
</g>
<defs>
<linearGradient id="paint0_linear_0_1" x1="32.0887" y1="8.84813" x2="20.2799" y2="-0.679544" gradientUnits="userSpaceOnUse">
<stop stop-color="#E96C04"/>
<stop offset="1" stop-color="#FF9300"/>
</linearGradient>
<linearGradient id="paint1_linear_0_1" x1="22.7139" y1="11.1461" x2="11.4555" y2="20.8893" gradientUnits="userSpaceOnUse">
<stop stop-color="#168016"/>
<stop offset="1" stop-color="#2CB72C"/>
</linearGradient>
<clipPath id="clip0_0_1">
<rect width="138" height="31" fill="white"/>
</clipPath>
</defs>
</svg>
